<svg xmlns="http://www.w3.org/2000/svg" viewBox="0 0 554.45 117.4"><defs><style>.cls-1{fill:#c53c02;}.cls-2{fill:#751b00;}.cls-3{fill:#265a8f;}.cls-4{fill:#162f51;}.cls-5{fill:#fdee00;}.cls-6{fill:#ecc700;}</style></defs><title>Asset 1</title><g id="Layer_2" data-name="Layer 2"><g id="Layer_1-2" data-name="Layer 1"><path id="Shape" class="cls-1" d="M109,1.6a19.38,19.38,0,0,1,6,4.1,21.26,21.26,0,0,1,4.1,6,18.47,18.47,0,0,1,1.5,7.4v94.8a3.07,3.07,0,0,1-3.1,3.1H94.8a2.58,2.58,0,0,1-2.1-.9,3.29,3.29,0,0,1-.8-2.2V27.7H73.6v86.2a3.29,3.29,0,0,1-.8,2.2,2.72,2.72,0,0,1-2.1.9H50.1a3.07,3.07,0,0,1-3.1-3.1V27.7H28.7v86.2c0,2.1-1,3.1-3.1,3.1H3.1C1,117,0,116,0,113.9V3.2C0,1.1,1,.1,3.1.1h98.4A19,19,0,0,1,109,1.6Z"/><path id="Shape-2" data-name="Shape" class="cls-2" d="M109,1.6a19.38,19.38,0,0,1,6,4.1,21.26,21.26,0,0,1,4.1,6,18.47,18.47,0,0,1,1.5,7.4v8.4l-28.7.2H28.8L.1,27.5V3.1C.1,1,1.1,0,3.2,0h98.4A20.9,20.9,0,0,1,109,1.6Z"/><path id="Shape-3" data-name="Shape" class="cls-3" d="M219.5,88.6a2.79,2.79,0,0,1,2.2.9,3.17,3.17,0,0,1,.9,2.3v22.1a3.34,3.34,0,0,1-.9,2.3,2.94,2.94,0,0,1-2.2.9H141.8c-2.2,0-3.3-1.1-3.3-3.2V3.3c0-2.1,1.1-3.2,3.3-3.2h23.8c2.2,0,3.3,1.1,3.3,3.2V85.7a2.7,2.7,0,0,0,1,2.2,3.09,3.09,0,0,0,2.3.8h47.3v-.1Z"/><path id="Shape-4" data-name="Shape" class="cls-4" d="M168.7,117H141.8c-2.2,0-3.3-1.1-3.3-3.2V3.3c0-2.1,1.1-3.2,3.3-3.2h23.8c2.2,0,3.3,1.1,3.3,3.2V85.7c0,.8-.2,31.3-.2,31.3Z"/><path id="Shape-5" data-name="Shape" class="cls-5" d="M338.9.1a3.17,3.17,0,0,1,2.3.9,3.26,3.26,0,0,1,1,2.3V114.2a3,3,0,0,1-1,2.3,3.17,3.17,0,0,1-2.3.9H314.7a3.17,3.17,0,0,1-2.3-.9,3.26,3.26,0,0,1-1-2.3V75.5a2.93,2.93,0,0,0-3.2-3H274.3a3.57,3.57,0,0,0-2.3.8,3,3,0,0,0-1,2.2v38.7c0,2.1-1.1,3.2-3.3,3.2h-24c-2.2,0-3.3-1.1-3.3-3.2V3.3c0-2.1,1.1-3.2,3.3-3.2h24c2.2,0,3.3,1.1,3.3,3.2V40.8c0,2.1,1.1,3.2,3.3,3.2h33.9a3.08,3.08,0,0,0,3.2-3.2V3.3a3,3,0,0,1,1-2.3,3.17,3.17,0,0,1,2.3-.9Z"/><path id="Shape-6" data-name="Shape" class="cls-6" d="M271.1,75.5v38.7c0,2.1-1.1,3.2-3.3,3.2h-24c-2.2,0-3.3-1.1-3.3-3.2V3.3c0-2.1,1.1-3.2,3.3-3.2h24c2.2,0,3.3,1.1,3.3,3.2V75.5Z"/><path id="Shape-7" data-name="Shape" class="cls-6" d="M338.9.1a3.17,3.17,0,0,1,2.3.9,3.26,3.26,0,0,1,1,2.3V114.2a3,3,0,0,1-1,2.3,3.17,3.17,0,0,1-2.3.9H314.7a3.17,3.17,0,0,1-2.3-.9,3.26,3.26,0,0,1-1-2.3V3.3a3,3,0,0,1,1-2.3,3.17,3.17,0,0,1,2.3-.9Z"/><path d="M446,3.6V114.23q0,3.18-3.17,3.17H419.76q-3.18,0-3.17-3.17V31.67c0-.44-.25-.64-.75-.58a3.59,3.59,0,0,0-1.76.92l-8.19,6.35q-1,.84-1.75.42a1.83,1.83,0,0,1-.75-1.75V13.63a5.88,5.88,0,0,1,.75-2.76,7.43,7.43,0,0,1,1.75-2.26l8.19-6.35A7.51,7.51,0,0,1,416.75.93a10.57,10.57,0,0,1,3-.5h23.06Q446,.43,446,3.6Z"/><path d="M534.89.43A18.62,18.62,0,0,1,542.5,2a19.64,19.64,0,0,1,10.36,10.36,18.63,18.63,0,0,1,1.59,7.6v94.25a3.14,3.14,0,0,1-3.17,3.17H528a2.79,2.79,0,0,1-2.17-.92,3.21,3.21,0,0,1-.84-2.26V86.82a2.81,2.81,0,0,0-.92-2.17,3.24,3.24,0,0,0-2.26-.84H484.6a18.57,18.57,0,0,1-7.6-1.59A21.19,21.19,0,0,1,470.73,78a18.32,18.32,0,0,1-4.18-6.18,19.48,19.48,0,0,1-1.5-7.6V20a19.49,19.49,0,0,1,1.5-7.6,18.38,18.38,0,0,1,4.18-6.18A21.29,21.29,0,0,1,477,2,18.61,18.61,0,0,1,484.6.43h50.3ZM526,27H493.45V56.41H526Z"/></g></g></svg>
