<?xml version="1.0" encoding="utf-8"?>
<!-- Generator: Adobe Illustrator 22.1.0, SVG Export Plug-In . SVG Version: 6.00 Build 0)  -->
<svg version="1.1" id="Layer_1" xmlns="http://www.w3.org/2000/svg" xmlns:xlink="http://www.w3.org/1999/xlink" x="0px" y="0px"
	 viewBox="0 0 222 107.3" style="enable-background:new 0 0 222 107.3;" xml:space="preserve">
<style type="text/css">
	.st0{fill-rule:evenodd;clip-rule:evenodd;fill:#17385F;}
	.st1{fill-rule:evenodd;clip-rule:evenodd;fill:#FFFFFF;}
	.st2{fill:#B6B5B5;}
	.st3{fill:#17385F;}
</style>
<g id="XMLID_52_">
	<g id="XMLID_51_">
		<g id="Rectangle_3">
			<g id="XMLID_42_">
				<rect id="XMLID_43_" x="150.8" y="33.9" class="st0" width="53.6" height="53.7"/>
			</g>
		</g>
		<g id="Shape_11">
			<g id="XMLID_168_">
				<path id="XMLID_169_" class="st1" d="M180.5,44.9c-1.3-0.3-4.4,0-4.8,2.7C178.2,49.2,180,47.2,180.5,44.9z M184.1,60.5
					c1.2,1.8,5.1,0.7,5.5-0.8c0.2-1-1.6-1-2.7-0.9C184.4,59.3,184.3,60.9,184.1,60.5z M177.7,53.4c3,0,3.5-1.3,4.3-3.8
					C180.8,50,178.8,48.9,177.7,53.4z M167.9,49.8c1.9-0.1,4.3-1.4,5.3-3.2c1-1.9,1.6-5.5,0.7-5.5C169.6,42.2,167.7,44.6,167.9,49.8
					z M168.3,58C168.4,58,168.4,58,168.3,58c7.3-0.5,7.8-6.3,7.4-7.5C175.1,50.4,168.3,51,168.3,58z M184,65.2
					c3.4,2.3,4.7,0.3,6-0.6C187.4,62.7,184.7,64.5,184,65.2z M167.1,42.4c1.8-0.1,3.6-3.6,2-5.5C166,38.4,166.3,42.4,167.1,42.4z
					 M177.5,59.1c4.1,1.3,8.5-1.9,8.9-5.3C185.9,53.6,178.9,52.2,177.5,59.1z M174.2,67.7c4.2,0.7,8.3-1.3,9.2-5.5
					C183.1,62.2,176.1,60.1,174.2,67.7z M164.9,79.9c-0.1,3,1.4,4.6,4.4,4.5C169.3,81.5,167.3,79.9,164.9,79.9z M180.3,79.2
					c-0.1,1.6,2.3,3.5,5,2.7C184,78.1,181.3,79.4,180.3,79.2z M177.2,75.2c2.6,1.9,7.5,2.6,10.3-2.1
					C185.6,72.3,181.1,69.7,177.2,75.2z M172.7,76.6c-1.9-0.1-3.2,1.4-4.4,2.3c3.4,4.8,9.8,1,10,0C177.1,78.2,177,76.7,172.7,76.6z
					 M183.8,68c-0.9,0-1.2,0.7-2,0.7c0.9,2,3.4,2.3,5.6,1.2C187.4,68.9,185.3,68,183.8,68z M154.2,47.9c3.5-1.6,5.6-7.4,2.7-10.3
					C153.1,40.6,152.7,42.1,154.2,47.9L154.2,47.9z M162.3,40.8c0.9-2.3,0.1-4.3-2.1-5.2C159.1,38.7,160.6,40,162.3,40.8z
					 M178.9,68.2C178.8,68.2,178.9,68.2,178.9,68.2c-2,1.9-8.3,3.6-11.3,4.1c0.8-1.1,1.7-3,3.1-4.6c1.4-1.5,3.2-2.8,3.6-3.1
					c-0.5,0.1-0.7,0.2-1.2,0.5c-3,1.6-5.1,3.7-7.5,6.1c-0.8,0.7-1.7,2.3-2.6,2.8c-1.3,0.8-2.5,0.9-3.7,1.6c-1.9,1-3.5,2.5-4.7,4.5
					c-1.5-4.8,3.4-11.5,9.6-15.2c3.6-2.1,7.5-3.3,9.7-4.6c1.2-0.7,1.9-1.6,1.8-2.1c-0.9,0.5-2.7,1.7-4.5,2c-2.6,0.5-4.8,0.8-6,1
					c2.5-6.3,1-10.4,0.5-11.3c0.3,3.3-0.2,5.5-0.7,7.6c-0.3,1.5-1.5,3.4-3.2,5c-2.4,2.1-5.9,4-8.3,6.3c0.5-1.8,0.7-3.4,1.2-5.2
					c1.8-3.1,3.3-6.1,4-9.3c0.9-4.5-0.5-7.8-0.5-7.4c-0.5,7.3-5.7,15.1-6.7,15.9c-0.2-0.2-0.6-0.6-0.6-0.6l0,25.5h5.7
					c1.3-6,5.5-8.8,10.2-10.8C172,74.6,177.6,73.2,178.9,68.2z M161.6,52.3c3.4-1.1,5.1-6.9,2.6-9.9
					C161.4,44.6,159.2,46.7,161.6,52.3z"/>
			</g>
		</g>
		<g id="XMLID_31_">
			<path id="XMLID_32_" class="st2" d="M26.6,82.7h-4.7v4.9h-3.1V71c2.6,0,5.2,0,7.8,0C34.7,71,34.7,82.7,26.6,82.7z M21.9,79.8h4.7
				c4,0,4-5.9,0-5.9h-4.7V79.8z"/>
			<path id="XMLID_37_" class="st2" d="M46.5,84.5h-8.6l-1.4,3.1h-3.4L40.5,71h3.4l7.4,16.6h-3.4L46.5,84.5z M42.2,74.5l-3.1,7.1
				h6.1L42.2,74.5z"/>
			<path id="XMLID_45_" class="st2" d="M67.4,87.6h-3.7l-4.8-5.5h-3v5.5h-3.1V71c2.6,0,5.2,0,7.9,0c3.9,0,6,2.6,6,5.5
				c0,2.3-1,4.6-4.2,5.2l5,5.7V87.6z M55.9,73.9v5.3h4.7c2,0,2.8-1.3,2.8-2.7s-0.9-2.7-2.8-2.7H55.9z"/>
			<path id="XMLID_49_" class="st2" d="M73.7,73.9h-5.2V71c4.8,0,8.8,0,13.6,0v2.8h-5.2v13.7h-3.1V73.9z"/>
			<path id="XMLID_54_" class="st2" d="M94.8,71h3.1v16.6H96v0l-8.7-11.2v11.2h-3.1V71h2.5l8.1,10.3V71z"/>
			<path id="XMLID_56_" class="st2" d="M113.1,87.6h-12.4c0-5.5,0-11.1,0-16.6h12.4v3h-9.3v3.8h9v2.9h-9v3.7h9.3V87.6z"/>
			<path id="XMLID_60_" class="st2" d="M130.2,87.6h-3.7l-4.8-5.5h-3v5.5h-3.1V71c2.6,0,5.2,0,7.9,0c3.9,0,6,2.6,6,5.5
				c0,2.3-1,4.6-4.2,5.2l5,5.7V87.6z M118.6,73.9v5.3h4.7c2,0,2.8-1.3,2.8-2.7s-0.9-2.7-2.8-2.7H118.6z"/>
			<path id="XMLID_67_" class="st2" d="M142.4,75c-0.6-0.9-2.1-1.8-3.9-1.8c-2.3,0-3.4,1-3.4,2.2c0,1.4,1.7,1.8,3.7,2.1
				c3.4,0.4,6.7,1.3,6.7,5.3c0,3.7-3.3,5.3-6.9,5.3c-3.4,0-6-1-7.2-4.1l2.6-1.3c0.7,1.8,2.6,2.6,4.7,2.6c2,0,3.8-0.7,3.8-2.5
				c0-1.6-1.6-2.2-3.8-2.4c-3.4-0.4-6.5-1.3-6.5-5c0-3.4,3.4-4.8,6.4-4.8c2.6,0,5.2,0.7,6.5,3.3L142.4,75z"/>
		</g>
		<g id="i_copy_5">
			<g id="XMLID_62_">
				<path id="XMLID_63_" class="st0" d="M23.5,41c1.7-0.2,3-2.4,2.3-4c-2.1-4.5-6.2-1.8-6.8,0.6C18.7,38.6,18.9,41.6,23.5,41z
					 M25.7,59c-0.6-4.9-0.6-13.3-0.6-13.3h-6.3c0,0-0.1,3.5,0,7.5c0,2,0.2,5.3,0.6,7.5c0.2,1.4,0.5,1.8,1.1,2.9
					c1.7,3.2,9.7,2.3,9.7,2.3v-6.4C30.4,59.1,25.9,60.2,25.7,59z"/>
			</g>
		</g>
	</g>
	<g id="XMLID_1_">
		<path id="XMLID_2_" class="st3" d="M69.8,31.9c-3.1-2.9-7.8-4.5-11.8-4.5c-9.9,0-16,7.3-16,16.5c0,7.4,4.4,15,16,15
			c3.6,0,6.8-0.8,10.5-3.6v-7.9H56.7v-7.6h19.9v18.9c-4.6,5.1-10.3,8.1-18.5,8.1c-17.4,0-24.5-11.1-24.5-22.9
			c0-12.6,8.1-24.3,24.5-24.3c6.2,0,12.5,2.3,17.2,6.9L69.8,31.9z"/>
		<path id="XMLID_4_" class="st3" d="M105.8,59.9h-17L86,65.8h-6.6l14.6-31.4h6.7l14.6,31.4h-6.7L105.8,59.9z M97.3,41l-6,13.4h12.1
			L97.3,41z"/>
		<path id="XMLID_22_" class="st3" d="M139.3,34.4h6.1v31.4h-3.8v0l-17.1-21.2v21.2h-6.1V34.4h5l15.9,19.5V34.4z"/>
	</g>
</g>
</svg>
