<?xml version="1.0" standalone="no"?>
<!DOCTYPE svg PUBLIC "-//W3C//DTD SVG 20010904//EN"
 "http://www.w3.org/TR/2001/REC-SVG-20010904/DTD/svg10.dtd">
<svg version="1.0" xmlns="http://www.w3.org/2000/svg"
 width="1004.000000pt" height="816.000000pt" viewBox="0 0 1004.000000 816.000000"
 preserveAspectRatio="xMidYMid meet">
<metadata>
Created by potrace 1.15, written by Peter Selinger 2001-2017
</metadata>
<g transform="translate(0.000000,816.000000) scale(0.100000,-0.100000)"
fill="#000000" stroke="none">
<path d="M4728 7813 c-146 -191 -435 -574 -644 -851 -586 -778 -1651 -2190
-2419 -3207 -229 -302 -602 -797 -830 -1100 -229 -302 -492 -651 -585 -775
-94 -124 -170 -228 -170 -232 0 -5 373 -8 829 -8 l829 0 1629 3254 c895 1790
1628 3254 1629 3253 1 -1 734 -1466 1628 -3254 l1627 -3253 830 0 c456 0 829
3 829 8 0 4 -62 89 -138 189 -75 100 -325 431 -554 735 -229 304 -611 810
-848 1123 -470 622 -751 995 -2502 3317 -662 877 -848 1122 -862 1136 -11 11
-58 -45 -278 -335z m-2318 -3847 c0 -32 -40 -143 -97 -271 -25 -55 -204 -420
-398 -811 -380 -763 -372 -750 -477 -806 -40 -21 -55 -23 -213 -23 -183 0
-220 9 -246 57 -21 39 7 90 158 289 80 107 290 385 466 619 176 234 357 472
401 528 45 57 101 129 125 160 132 171 237 282 268 282 7 0 13 -11 13 -24z
m5246 -20 c79 -71 253 -292 731 -926 192 -256 409 -543 481 -638 169 -223 182
-264 99 -309 -27 -15 -59 -18 -202 -18 -169 0 -170 0 -223 29 -29 17 -69 47
-87 68 -22 24 -161 292 -389 750 -362 730 -414 839 -460 966 -46 130 -32 152
50 78z"/>
<path d="M9024 1326 c-212 -48 -371 -167 -453 -339 -55 -117 -66 -170 -65
-327 1 -118 4 -145 27 -215 75 -225 233 -368 469 -425 115 -28 314 -28 422 0
244 62 409 240 441 473 l6 47 -219 0 -218 0 -18 -56 c-37 -117 -144 -180 -262
-154 -120 27 -185 118 -208 290 -10 71 10 187 44 256 45 92 112 135 212 136
30 0 70 -5 90 -11 45 -15 106 -78 123 -127 l13 -39 216 -3 c177 -2 216 0 216
11 0 35 -42 174 -67 219 -63 116 -167 199 -307 245 -71 23 -101 26 -241 29
-111 3 -179 -1 -221 -10z"/>
<path d="M450 679 c-140 -347 -257 -635 -258 -640 -2 -5 86 -9 221 -9 l225 0
29 88 30 87 220 3 220 2 27 -90 28 -90 229 0 c126 0 229 4 229 8 0 5 -114 292
-253 638 l-252 629 -220 2 -220 3 -255 -631z m535 3 c30 -95 55 -177 55 -182
0 -6 -49 -10 -120 -10 -66 0 -120 3 -120 7 0 12 123 363 126 360 2 -2 28 -81
59 -175z"/>
<path d="M1540 1299 c0 -7 93 -295 207 -641 l207 -628 249 2 250 3 218 635
c120 349 219 636 219 638 0 1 -103 2 -228 2 l-229 0 -11 -36 c-6 -20 -54 -186
-108 -370 -54 -184 -100 -334 -104 -334 -4 0 -56 166 -116 370 l-109 370 -222
0 c-161 0 -223 -3 -223 -11z"/>
<path d="M2960 670 l0 -640 595 0 595 0 0 165 0 165 -375 0 -375 0 0 75 0 75
330 0 330 0 0 160 0 160 -330 0 -330 0 0 75 0 75 365 0 365 0 0 165 0 165
-585 0 -585 0 0 -640z"/>
<path d="M4350 670 l0 -640 210 0 210 0 2 335 3 334 205 -332 205 -332 218 -3
217 -2 0 640 0 640 -210 0 -210 0 0 -332 0 -333 -198 330 -198 330 -227 3
-227 2 0 -640z"/>
<path d="M5770 1145 l0 -165 200 0 200 0 0 -475 0 -475 220 0 220 0 0 475 0
475 200 0 200 0 0 165 0 165 -620 0 -620 0 0 -165z"/>
<path d="M7160 670 l0 -640 595 0 595 0 0 165 0 165 -375 0 -375 0 0 75 0 75
330 0 330 0 0 160 0 160 -330 0 -330 0 0 75 0 75 365 0 365 0 0 165 0 165
-585 0 -585 0 0 -640z"/>
</g>
</svg>
