<?xml version="1.0" encoding="UTF-8"?>
<svg width="498px" height="119px" viewBox="0 0 498 119" version="1.1" xmlns="http://www.w3.org/2000/svg" xmlns:xlink="http://www.w3.org/1999/xlink">
    <!-- Generator: Sketch 44.1 (41455) - http://www.bohemiancoding.com/sketch -->
    <title>kwikee-logo</title>
    <desc>Created with Sketch.</desc>
    <defs></defs>
    <g id="Page-1" stroke="none" stroke-width="1" fill="none" fill-rule="evenodd">
        <g id="kwikee-logo" fill-rule="nonzero" fill="#253B7D">
            <polygon id="Shape" points="47.04 50.59 78.47 1.19 53.09 1.19 23.32 48.03 23.32 1.19 0 1.19 0 116.85 23.32 116.85 23.32 82.4 31.95 69.6 55.9 116.85 81.92 116.85"></polygon>
            <path d="M80.05,29.73 L102.37,29.73 L112.56,91.64 C112.607668,91.7544034 112.72946,91.819257 112.85099,91.794951 C112.97252,91.7706449 113.06,91.6639371 113.06,91.54 C113.06,91.19 123.91,29.8 123.91,29.8 L148,29.8 C148,29.8 159.5,91.19 159.53,91.54 C159.56,91.89 159.93,91.78 159.99,91.43 C160.05,91.08 170.47,29.8 170.47,29.8 L191.7,29.8 L172.93,116.8 L147.54,116.8 C147.54,116.8 136.17,55.38 136.12,55.16 C136.07,54.94 135.7,54.86 135.62,55.24 C135.54,55.62 124.69,116.79 124.69,116.79 L99.09,116.79 L80.05,29.73 Z" id="Shape"></path>
            <rect id="Rectangle-path" x="201.14" y="0" width="22.28" height="18.9"></rect>
            <rect id="Rectangle-path" x="201.18" y="29.7" width="22.25" height="87.15"></rect>
            <polygon id="Shape" points="313.27 116.77 284.54 63.98 284.55 63.96 309.67 29.7 285.16 29.7 262.23 62.81 262.23 1.08 240.02 1.08 240.02 116.85 262.23 116.85 262.23 91.47 270.21 81.09 270.25 81.05 288.87 116.77"></polygon>
            <path d="M383.36,76.85 L383.36,69.94 C383.36,63.5 383.29,51.55 378.68,42.11 C374.07,32.67 366.19,27.5 351,27.5 C335.81,27.5 324.58,33.26 319.54,49.42 C315.33,62.92 317.54,87.79 318.05,91.79 C318.56,95.79 320.48,108.1 331.44,114.47 C342.4,120.84 361.3,119.11 368.26,114.96 C375.22,110.81 381.11,104.43 382.26,87.64 L362.16,87.64 C361.874682,90.1461804 361.3694,92.6223958 360.65,95.04 C359.29,99.46 356.71,104.04 350.5,104.04 C343.37,104.04 341.32,96.91 340.73,95.67 C340.14,94.43 338.68,88.85 339.16,76.84 L383.36,76.84 L383.36,76.85 Z M340.13,51.94 C341.96,45.6 345.64,42.55 350.64,42.55 C355.64,42.55 359.32,44.85 360.64,50.61 C361.528314,54.8621976 362.023733,59.1870726 362.12,63.53 L339.12,63.53 C339.12,63.53 338.87,56.3 340.13,51.94 Z" id="Shape"></path>
            <path d="M458.52,76.85 L458.52,69.94 C458.52,63.5 458.45,51.55 453.84,42.11 C449.23,32.67 441.35,27.5 426.16,27.5 C410.97,27.5 399.74,33.26 394.7,49.42 C390.49,62.92 392.7,87.79 393.21,91.79 C393.72,95.79 395.64,108.1 406.6,114.47 C417.56,120.84 436.46,119.11 443.42,114.96 C450.38,110.81 456.27,104.43 457.42,87.64 L437.32,87.64 C437.034682,90.1461804 436.5294,92.6223958 435.81,95.04 C434.45,99.46 431.87,104.04 425.66,104.04 C418.53,104.04 416.48,96.91 415.89,95.67 C415.3,94.43 413.84,88.85 414.33,76.84 L458.53,76.84 L458.52,76.85 Z M415.29,51.94 C417.12,45.6 420.8,42.55 425.8,42.55 C430.8,42.55 434.47,44.85 435.8,50.61 C436.684897,54.8625186 437.176968,59.1873853 437.27,63.53 L414.27,63.53 C414.27,63.53 414,56.3 415.29,51.94 Z" id="Shape"></path>
            <path d="M465.81,21.42 C466.661703,19.4756415 467.884542,17.716112 469.41,16.24 C472.562834,13.2118951 476.768547,11.5267417 481.14,11.54 C487.741761,11.488676 493.737814,15.3798156 496.38,21.43 C497.27056,23.4661765 497.720403,25.6676825 497.7,27.89 C497.725089,30.148287 497.275373,32.3866462 496.38,34.46 C495.531235,36.4157517 494.316048,38.1910114 492.8,39.69 C491.290568,41.1746702 489.503123,42.3470436 487.54,43.14 C485.504808,43.9668592 483.326698,44.3848117 481.13,44.37 C478.926984,44.3830209 476.742675,43.9651827 474.7,43.14 C472.724811,42.3474841 470.924178,41.1753742 469.4,39.69 C467.872733,38.196165 466.650101,36.4199526 465.8,34.46 C464.905197,32.3864678 464.455506,30.1482311 464.48,27.89 C464.461637,25.6636276 464.914912,23.4585997 465.81,21.42 L465.81,21.42 Z M468.53,33.3 C469.865068,36.5676413 472.460506,39.159475 475.73,40.49 C477.448847,41.1799313 479.288097,41.5199036 481.14,41.49 C482.972404,41.5194586 484.791954,41.1793557 486.49,40.49 C488.099723,39.8228834 489.56376,38.8479909 490.8,37.62 C492.032112,36.3832899 493.00749,34.9151261 493.67,33.3 C494.359175,31.5774418 494.699094,29.7350802 494.67,27.88 C494.697063,26.0575272 494.356974,24.2482553 493.67,22.56 C493.00569,20.9605736 492.030126,19.5091243 490.8,18.29 C488.224872,15.7673813 484.754705,14.3685267 481.15,14.4 C479.298075,14.3698276 477.458772,14.7098096 475.74,15.4 C474.126351,16.0618198 472.655996,17.0296052 471.41,18.25 C470.179668,19.4689538 469.204074,20.920447 468.54,22.52 C467.852499,24.2081001 467.51239,26.0174803 467.54,27.84 C467.501837,29.7046224 467.838492,31.5579234 468.53,33.29 L468.53,33.3 Z M482.53,19.11 C484.438625,18.9694411 486.345204,19.4086165 488,20.37 C489.212057,21.2650006 489.883305,22.7168578 489.78,24.22 C489.78,25.83 489.37,27.44 488.33,28.22 C487.310967,28.8746243 486.147003,29.2694792 484.94,29.37 L489.32,37 L485.32,37 L481.08,29.3 L477.66,29.3 L477.66,37 L474.44,37 L474.44,19.1 L482.44,19.1 L482.53,19.11 Z M481.11,26.82 C481.84,26.82 482.53,26.82 483.18,26.76 C483.768707,26.7339943 484.350943,26.6262975 484.91,26.44 C485.38082,26.2877969 485.799855,26.0072862 486.12,25.63 C486.444527,25.1884259 486.603782,24.646959 486.57,24.1 C486.597405,23.6264893 486.455635,23.1586501 486.17,22.78 C485.90206,22.4529804 485.558962,22.1956573 485.17,22.03 C484.698969,21.8427119 484.20427,21.721561 483.7,21.67 C483.155496,21.6087574 482.607935,21.5787084 482.06,21.58 L477.79,21.58 L477.79,26.82 L481.16,26.82 L481.11,26.82 Z" id="Shape"></path>
        </g>
    </g>
</svg>