<?xml version="1.0" encoding="UTF-8"?>
<svg width="318px" height="185px" viewBox="0 0 318 185" version="1.1" xmlns="http://www.w3.org/2000/svg" xmlns:xlink="http://www.w3.org/1999/xlink">
    <!-- Generator: Sketch 44.1 (41455) - http://www.bohemiancoding.com/sketch -->
    <title>right-health-logo-black</title>
    <desc>Created with Sketch.</desc>
    <defs></defs>
    <g id="Page-1" stroke="none" stroke-width="1" fill="none" fill-rule="evenodd">
        <g id="right-health-logo-black" fill-rule="nonzero" fill="#000000">
            <path d="M70.632567,2.48412402e-15 C75.018023,0.001498 79.403329,0.007489 83.788635,0.02097 C84.674646,0.029957 85.560057,0.052424 86.444867,0.09736 C88.194063,0.185732 89.939206,0.350495 91.673535,0.593146 C96.631745,1.286647 101.49775,2.612237 106.120477,4.529475 C112.388932,7.129729 118.19561,10.817417 123.218544,15.373853 C128.133204,19.829934 132.293854,25.10833 135.465024,30.930443 C138.179072,35.913765 140.168993,41.286675 141.343184,46.836031 C142.894304,54.16692 143.035616,61.790189 141.757507,69.173353 C141.002144,73.536867 139.749865,77.812458 138.033255,81.896025 L182.926852,81.896025 L194.731827,8.83727 C194.785889,8.567658 194.829439,8.296548 194.894012,8.029933 C195.089235,7.230085 195.379066,6.452705 195.755996,5.72026 C196.383713,4.49802 197.254707,3.403098 198.304405,2.513379 C199.352602,1.625159 200.578001,0.945138 201.887496,0.524245 C202.674394,0.272607 203.489825,0.112338 204.312764,0.050927 C204.587578,0.029957 204.862391,0.029957 205.137205,0.02097 L205.961646,0.05542 C206.234958,0.088373 206.509772,0.11084 206.781582,0.154278 C207.597013,0.28459 208.395925,0.512262 209.158796,0.829805 C210.173955,1.252196 211.123038,1.834857 211.957991,2.550825 C213.632402,3.985758 214.827767,5.94194 215.336848,8.085353 C215.527566,8.886698 215.623676,9.710512 215.620672,10.534325 C215.61917,11.26677 215.575621,11.448009 215.48702,12.172964 L204.222661,81.896025 L285.306219,81.896025 L297.111194,8.83727 C297.165256,8.567658 297.208806,8.296548 297.273379,8.029933 C297.468602,7.230085 297.758433,6.452705 298.135363,5.72026 C298.76308,4.49802 299.634074,3.403098 300.683772,2.513379 C301.731969,1.625159 302.955866,0.945138 304.266863,0.524245 C305.053761,0.272607 305.869192,0.112338 306.692131,0.050927 C306.966945,0.029957 307.241758,0.029957 307.516572,0.02097 L308.341013,0.05542 C308.614325,0.088373 308.889139,0.11084 309.160949,0.154278 C309.97638,0.28459 310.775292,0.512262 311.538163,0.829805 C312.553322,1.252196 313.502405,1.834857 314.337358,2.550825 C316.011769,3.985758 317.207134,5.94194 317.716215,8.085353 C317.906933,8.886698 318.003043,9.710512 318.000039,10.534325 C317.998537,11.26677 317.954988,11.448009 317.866387,12.172964 L304.879562,92.55557 C304.876559,93.252516 304.805978,93.949312 304.664817,94.633227 C304.583724,95.029706 304.480106,95.421392 304.353962,95.805738 L291.367137,176.183251 C291.222973,176.899968 291.206454,177.085851 290.978193,177.782048 C290.634301,178.825744 290.126721,179.81417 289.476479,180.700893 C288.827739,181.587616 288.037837,182.371137 287.145819,183.014161 C286.252299,183.657334 285.258164,184.158962 284.209967,184.495527 C283.191805,184.822506 282.128592,184.989665 281.063876,184.997004 L280.960258,184.997304 C279.861003,184.994308 278.76325,184.821158 277.713552,184.478152 C276.666857,184.135895 275.677227,183.628875 274.788212,182.980909 C273.899198,182.332942 273.112299,181.545377 272.468064,180.655059 C271.337273,179.094607 270.653993,177.229194 270.506825,175.309559 C270.466279,174.761799 270.467781,174.211791 270.51133,173.664329 C270.533856,173.390823 270.577406,173.119414 270.610443,172.846957 L281.876304,103.124345 L200.792746,103.124345 L188.98777,176.183251 C188.933709,176.452263 188.890159,176.723672 188.824084,176.990288 C188.694936,177.524119 188.522239,178.046866 188.310497,178.553736 C187.567149,180.330327 186.329736,181.886885 184.76495,183.014161 C183.872932,183.657334 182.878797,184.158962 181.8306,184.495527 C180.815442,184.821607 179.750726,184.992061 178.684509,184.9997 L178.580891,185 C176.373371,184.994009 174.19138,184.280287 172.407344,182.980909 C171.518329,182.332942 170.732932,181.545377 170.088697,180.655059 C169.444462,179.764742 168.941387,178.773619 168.603502,177.728125 C168.265616,176.682781 168.09442,175.585013 168.097424,174.486795 C168.100427,173.75405 168.143977,173.572662 168.231076,172.846957 L179.496937,103.124345 L120.011633,103.124345 C119.251316,103.093789 119.057594,103.108917 118.304635,102.986843 L118.301181,102.986244 C116.727685,102.921687 115.174011,102.501243 113.783874,101.761908 C112.500059,101.079042 111.363261,100.12911 110.464485,98.988054 C109.822653,98.173377 109.30321,97.263738 108.928081,96.297779 C108.477717,95.13815 108.236542,93.899734 108.219272,92.656375 C108.190139,90.579766 108.791426,88.513043 109.930476,86.774648 C110.157835,86.427747 110.405468,86.094477 110.672323,85.776785 C111.001498,85.38495 111.364463,85.020524 111.709707,84.642769 C111.957039,84.369113 112.200917,84.092611 112.441943,83.813413 C113.449142,82.630867 114.390567,81.395746 115.25165,80.103108 C117.024574,77.441592 118.458711,74.556448 119.507658,71.537098 C120.739665,67.990956 121.433907,64.262527 121.571014,60.51208 C121.722536,56.36111 121.207449,52.190218 120.018241,48.208054 C118.892856,44.439483 117.173394,40.854248 114.947252,37.609622 C112.611937,34.206225 109.720987,31.185077 106.425174,28.694165 C103.788314,26.702035 100.892108,25.051412 97.830113,23.802212 C94.848309,22.585964 91.711228,21.753164 88.518284,21.327776 C86.818193,21.101602 85.106389,20.995255 83.391431,20.990762 L45.964958,20.990762 L36.103351,82.025289 L58.581761,82.025289 C58.803113,82.032329 59.024616,82.039219 59.245969,82.046259 C59.466571,82.067229 59.687773,82.081159 59.907624,82.109019 C60.347326,82.164738 60.783124,82.248168 61.212313,82.358859 C62.500033,82.690781 63.721528,83.268349 64.794503,84.052319 C65.152061,84.313693 65.49265,84.597234 65.814317,84.901446 C65.97515,85.053477 66.126073,85.215544 66.281951,85.372517 L142.689921,167.377436 C143.08307,167.827687 143.193145,167.931787 143.541843,168.418287 C144.195089,169.330023 144.700266,170.34601 145.032295,171.416667 C145.43085,172.701816 145.578168,174.061707 145.464038,175.402126 C145.368979,176.518768 145.093264,177.618933 144.650259,178.648849 C144.118502,179.885168 143.346921,181.015889 142.388977,181.962675 C141.431034,182.909611 140.290332,183.668868 139.046162,184.18802 C138.217065,184.533871 137.343668,184.773077 136.453602,184.897847 C136.001586,184.961356 135.545666,184.995057 135.089295,184.999401 L134.984025,184.99985 C134.352253,184.999401 133.720632,184.942483 133.098923,184.829096 C131.550505,184.546603 130.071767,183.913915 128.799515,182.989296 C128.43625,182.725377 128.090405,182.43839 127.763933,182.130284 C127.600847,181.976156 127.447672,181.811992 127.289541,181.652772 L54.000331,102.995081 L32.715184,102.995081 L20.890085,176.183251 C20.74517,176.899968 20.729702,177.085851 20.500691,177.782048 C20.157699,178.825744 19.649369,179.81417 18.999727,180.700893 C18.350086,181.587616 17.560485,182.371137 16.667866,183.014161 C15.775247,183.657334 14.781562,184.158962 13.733366,184.495527 C12.715354,184.822506 11.651539,184.989665 10.586674,184.997004 L10.483656,184.997304 C9.384552,184.994308 8.2857473,184.821158 7.2366498,184.478152 C6.1904055,184.135895 5.1994243,183.628875 4.3102593,182.980909 C3.4212444,182.332942 2.6358479,181.545377 1.9910118,180.655059 C0.8606715,179.094607 0.1764905,177.229194 0.0302236,175.309559 C-0.0115241,174.761799 -0.0100224,174.211791 0.0347287,173.664329 C0.0571042,173.390823 0.1008041,173.119414 0.133992,172.846957 L26.633241,8.83727 L26.634893,8.828283 C26.676941,8.569156 26.72875,8.311527 26.79032,8.055396 L26.796477,8.029933 L26.814949,7.95504 L26.834171,7.880148 L26.855044,7.800763 L26.873966,7.730364 L26.88658,7.685429 L26.902499,7.630009 L26.917065,7.579082 L26.937939,7.508683 L26.960315,7.435289 L26.983291,7.360397 L27.006717,7.287003 L27.030745,7.213609 L27.042909,7.17766 C27.2108,6.677381 27.416535,6.189084 27.658011,5.72026 C27.759226,5.522545 27.866899,5.329323 27.980579,5.139097 L28.003555,5.101651 L28.039597,5.041737 C28.175051,4.820057 28.318765,4.604367 28.470438,4.393171 C28.7436,4.01272 29.042441,3.65174 29.363808,3.311729 L29.401952,3.271288 C29.656342,3.006169 29.924698,2.753034 30.205969,2.513379 C30.340073,2.401041 30.477179,2.290201 30.616838,2.183854 L30.660088,2.150902 C30.816416,2.032572 30.976049,1.918736 31.138834,1.809393 C31.492338,1.571237 31.860258,1.355547 32.239741,1.163823 L32.298909,1.133867 L32.324738,1.120386 C32.797027,0.885225 33.287187,0.686012 33.789961,0.524245 C34.099164,0.425387 34.413022,0.34001 34.730184,0.271109 L34.761119,0.26362 L34.817283,0.251638 L34.88411,0.236659 L34.950936,0.223179 L34.988929,0.215689 C35.043141,0.205204 35.097503,0.196217 35.151865,0.185732 C35.274705,0.163265 35.397996,0.143793 35.521437,0.125819 L35.536454,0.124321 L35.613492,0.113836 L35.69068,0.103351 L35.768019,0.094364 L35.845357,0.085377 L35.922845,0.07639 L36.000334,0.068901 L36.077822,0.061412 L36.155461,0.05542 L36.223789,0.049429 C36.278601,0.046433 36.333564,0.04194 36.388527,0.038944 C36.595914,0.026961 36.803751,0.026961 37.011288,0.02097 C47.731125,0.02097 58.450961,-0.001498 69.170798,2.48412402e-15 L70.632567,2.48412402e-15 Z" id="Page-1"></path>
        </g>
    </g>
</svg>