<?xml version="1.0" encoding="UTF-8"?>
<svg width="729px" height="110px" viewBox="0 0 729 110" version="1.1" xmlns="http://www.w3.org/2000/svg" xmlns:xlink="http://www.w3.org/1999/xlink">
    <!-- Generator: Sketch 44.1 (41455) - http://www.bohemiancoding.com/sketch -->
    <title>thinkresearch</title>
    <desc>Created with Sketch.</desc>
    <defs>
        <linearGradient x1="30.1306069%" y1="73.7670429%" x2="97.2468338%" y2="-6.64469526%" id="linearGradient-1">
            <stop stop-color="#F15B2A" offset="0%"></stop>
            <stop stop-color="#FAAF42" offset="100%"></stop>
        </linearGradient>
        <linearGradient x1="36.3024194%" y1="118.443177%" x2="62.7720968%" y2="17.5715884%" id="linearGradient-2">
            <stop stop-color="#2AABE2" offset="0%"></stop>
            <stop stop-color="#2E368F" offset="98.79%"></stop>
            <stop stop-color="#2E368F" offset="100%"></stop>
        </linearGradient>
        <linearGradient x1="38.743722%" y1="64.9173684%" x2="118.909865%" y2="20.9957895%" id="linearGradient-3">
            <stop stop-color="#29ABE2" offset="0%"></stop>
            <stop stop-color="#D7DE27" offset="98.79%"></stop>
            <stop stop-color="#D7DE27" offset="100%"></stop>
        </linearGradient>
        <linearGradient x1="18.3404063%" y1="104.159775%" x2="69.9264108%" y2="15.8518987%" id="linearGradient-4">
            <stop stop-color="#90298D" offset="0%"></stop>
            <stop stop-color="#90298D" offset="1.20703%"></stop>
            <stop stop-color="#411025" offset="100%"></stop>
        </linearGradient>
    </defs>
    <g id="Page-1" stroke="none" stroke-width="1" fill="none" fill-rule="evenodd">
        <g id="thinkresearch" fill-rule="nonzero">
            <g id="Group" transform="translate(124.000000, 18.000000)">
                <path d="M8.8,57.2 L8.8,31.9 L0.7,31.9 L0.7,20.7 L8.8,20.7 L8.8,7.5 L21.6,7.5 L21.6,20.8 L31.5,20.8 L31.5,32 L21.6,32 L21.6,53.8 C21.6,56.9 23.2,59.2 26,59.2 C27.9,59.2 29.7,58.5 30.4,57.7 L33.1,67.5 C31.2,69.2 27.8,70.6 22.4,70.6 C13.5,70.6 8.8,65.9 8.8,57.2" id="Shape" fill="#414042"></path>
                <path d="M73.1,69.4 L73.1,39.8 C73.1,33.1 69.6,30.9 64.1,30.9 C59.1,30.9 55.1,33.7 53,36.5 L53,69.3 L40.1,69.3 L40.1,2.2 L53,2.2 L53,27 C56.1,23.4 62.1,19.6 70,19.6 C80.7,19.6 85.8,25.4 85.8,34.9 L85.8,69.4 L73.1,69.4 Z" id="Shape" fill="#414042"></path>
                <path d="M97.3,7.9 C97.3,3.7 100.7,0.4 104.8,0.4 C109,0.4 112.5,3.7 112.5,7.9 C112.5,12.1 109.1,15.6 104.8,15.6 C100.8,15.5 97.3,12.1 97.3,7.9 L97.3,7.9 Z M98.5,20.7 L111.3,20.7 L111.3,69.3 L98.5,69.3 L98.5,20.7 Z" id="Shape" fill="#414042"></path>
                <path d="M156.8,69.4 L156.8,40 C156.8,33.3 153.3,30.9 147.8,30.9 C142.8,30.9 138.9,33.7 136.7,36.5 L136.7,69.3 L124,69.3 L124,20.7 L136.8,20.7 L136.8,27 C139.9,23.4 146,19.6 153.8,19.6 C164.6,19.6 169.7,25.6 169.7,35.1 L169.7,69.4 L156.8,69.4 Z" id="Shape" fill="#414042"></path>
                <polygon id="Shape" fill="#414042" points="213.8 69.4 200.9 50.6 195.1 56.9 195.1 69.4 182.3 69.4 182.3 2.2 195.1 2.2 195.1 42.4 213.5 20.7 229.2 20.7 210 42.8 229.8 69.4"></polygon>
                <path d="M240.2,69.2 L240.2,20.6 L245.4,20.6 L245.4,29 C249.5,23.6 255.1,19.6 261.8,19.6 L261.8,25.3 C260.9,25.1 260.2,25.1 259.2,25.1 C254.3,25.1 247.6,29.5 245.4,33.8 L245.4,69.2 L240.2,69.2 L240.2,69.2 Z" id="Shape" fill="#77787B"></path>
                <path d="M269.4,44.8 C269.4,30.7 279.3,19.3 292.8,19.3 C307.6,19.3 315.7,31 315.7,45.1 L315.7,46.5 L275,46.5 C275.5,57.1 282.5,65.8 294,65.8 C300.1,65.8 305.8,63.5 309.9,59.1 L312.6,62.5 C307.8,67.5 301.6,70.3 293.6,70.3 C279.4,70.4 269.4,59.8 269.4,44.8 M292.6,23.9 C281.1,23.9 275.4,34 275,42.4 L310.3,42.4 C310.2,34.1 304.8,23.9 292.6,23.9" id="Shape" fill="#77787B"></path>
                <path d="M324.9,62.6 L328,58.8 C331.1,62.7 336.9,65.9 343.7,65.9 C351.9,65.9 356.7,61.7 356.7,56 C356.7,42.7 326,50.3 326,32.7 C326,25.3 332.3,19.2 343.3,19.2 C351.7,19.2 357.2,22.4 360.7,26.3 L357.8,30 C355,26.2 349.7,23.6 343.3,23.6 C335.7,23.6 331.2,27.4 331.2,32.5 C331.2,44.7 361.8,37.2 361.8,56 C361.8,63.9 355.8,70.3 343.6,70.3 C335.8,70.4 329.8,68.1 324.9,62.6" id="Shape" fill="#77787B"></path>
                <path d="M372.6,44.8 C372.6,30.7 382.5,19.3 396,19.3 C410.8,19.3 418.9,31 418.9,45.1 L418.9,46.5 L378.2,46.5 C378.7,57.1 385.7,65.8 397.2,65.8 C403.3,65.8 409,63.5 413.1,59.1 L415.8,62.5 C411,67.5 404.8,70.3 396.8,70.3 C382.7,70.4 372.6,59.8 372.6,44.8 M395.9,23.9 C384.4,23.9 378.7,34 378.3,42.4 L413.6,42.4 C413.5,34.1 408.1,23.9 395.9,23.9" id="Shape" fill="#77787B"></path>
                <path d="M463.3,69.2 L463.3,63.5 C459,68.2 453.5,70.4 446.8,70.4 C438.4,70.4 429.8,64.7 429.8,54.2 C429.8,43.6 438.4,38.1 446.8,38.1 C453.5,38.1 459.1,40.3 463.3,45 L463.3,35.1 C463.3,27.9 457.5,23.9 450.3,23.9 C444.2,23.9 439.4,26 435,31 L432.1,27.4 C437.1,22 442.8,19.2 450.8,19.2 C460.7,19.2 468.5,23.9 468.5,34.8 L468.5,69 L463.3,69 L463.3,69.2 Z M463.3,59.6 L463.3,48.9 C459.9,44.4 454.4,42.2 448.6,42.2 C440.6,42.2 435.3,47.3 435.3,54.3 C435.3,61.1 440.6,66.3 448.6,66.3 C454.5,66.2 459.9,64 463.3,59.6 L463.3,59.6 Z" id="Shape" fill="#77787B"></path>
                <path d="M484.9,69.2 L484.9,20.6 L490.1,20.6 L490.1,29 C494.2,23.6 499.8,19.6 506.5,19.6 L506.5,25.3 C505.6,25.1 504.9,25.1 503.9,25.1 C499,25.1 492.3,29.5 490.1,33.8 L490.1,69.2 L484.9,69.2 L484.9,69.2 Z" id="Shape" fill="#77787B"></path>
                <path d="M514,44.8 C514,30.6 523.3,19.3 537.6,19.3 C546.1,19.3 550.9,22.6 554.8,27.6 L551.2,30.8 C547.7,26 543.2,24.1 537.9,24.1 C526.5,24.1 519.6,33.2 519.6,44.8 C519.6,56.5 526.5,65.6 537.9,65.6 C543.2,65.6 547.7,63.6 551.2,58.8 L554.8,62 C550.9,67 546,70.4 537.6,70.4 C523.3,70.4 514,59 514,44.8" id="Shape" fill="#77787B"></path>
                <path d="M599.3,69.2 L599.3,36.1 C599.3,26.7 594.6,24.1 587.5,24.1 C581.3,24.1 574.8,28 571.7,32.5 L571.7,69.2 L566.5,69.2 L566.5,2 L571.7,2 L571.7,27.9 C575.2,23.7 582.2,19.3 589.2,19.3 C599.1,19.3 604.5,23.9 604.5,34.9 L604.5,69.1 L599.3,69.1 L599.3,69.2 Z" id="Shape" fill="#77787B"></path>
            </g>
            <g id="Group">
                <polygon id="Shape" fill="url(#linearGradient-1)" points="3.1 0.4 44.3 41.6 44.3 27.4 61.6 27.4 61.6 44.7 78.9 44.7 78.9 0.4"></polygon>
                <polygon id="Shape" fill="url(#linearGradient-2)" points="61.6 64.9 61.6 79.3 44.3 79.3 44.3 109.6 106.3 109.6"></polygon>
                <polygon id="Shape" fill="url(#linearGradient-3)" points="78.9 49.6 78.9 62 64.6 62 109.2 106.6 109.2 49.6"></polygon>
                <polygon id="Shape" fill="url(#linearGradient-4)" points="44.3 74.4 44.3 62 27 62 27 44.7 41.4 44.7 0 3.3 0 74.4"></polygon>
            </g>
        </g>
    </g>
</svg>
