<?xml version="1.0" encoding="UTF-8"?>
<svg width="100px" height="30px" viewBox="0 0 100 30" version="1.1" xmlns="http://www.w3.org/2000/svg" xmlns:xlink="http://www.w3.org/1999/xlink">
    <!-- Generator: Sketch 44.1 (41455) - http://www.bohemiancoding.com/sketch -->
    <title>twilio-logo-red</title>
    <desc>Created with Sketch.</desc>
    <defs></defs>
    <g id="Page-1" stroke="none" stroke-width="1" fill="none" fill-rule="evenodd">
        <g id="twilio-logo-red" fill-rule="nonzero" fill="#F22F46">
            <path d="M14.4,11.3 C14.4,13 13,14.4 11.3,14.4 C9.6,14.4 8.2,13 8.2,11.3 C8.2,9.6 9.6,8.2 11.3,8.2 C13,8.2 14.4,9.6 14.4,11.3 L14.4,11.3 Z M11.3,15.6 C9.6,15.6 8.2,17 8.2,18.7 C8.2,20.4 9.6,21.8 11.3,21.8 C13,21.8 14.4,20.4 14.4,18.7 C14.4,17 13,15.6 11.3,15.6 L11.3,15.6 Z M30,15 C30,23.3 23.3,30 15,30 C6.7,30 0,23.3 0,15 C0,6.7 6.7,0 15,0 C23.3,0 30,6.7 30,15 Z M26,15 C26,8.9 21.1,4 15,4 C8.9,4 4,8.9 4,15 C4,21.1 8.9,26 15,26 C21.1,26 26,21.1 26,15 Z M18.7,15.6 C17,15.6 15.6,17 15.6,18.7 C15.6,20.4 17,21.8 18.7,21.8 C20.4,21.8 21.8,20.4 21.8,18.7 C21.8,17 20.4,15.6 18.7,15.6 Z M18.7,8.2 C17,8.2 15.6,9.6 15.6,11.3 C15.6,13 17,14.4 18.7,14.4 C20.4,14.4 21.8,13 21.8,11.3 C21.8,9.6 20.4,8.2 18.7,8.2 Z M70.3,5.9 C70.4,5.9 70.5,6 70.6,6.1 L70.6,9.3 C70.6,9.5 70.4,9.6 70.3,9.6 L65,9.6 C64.8,9.6 64.7,9.4 64.7,9.3 L64.7,6.2 C64.7,6 64.9,5.9 65,5.9 L70.3,5.9 L70.3,5.9 Z M70.2,10.4 L60,10.4 C59.9,10.4 59.7,10.5 59.7,10.7 L58.4,15.7 L58.3,16 L56.7,10.7 C56.7,10.6 56.5,10.4 56.4,10.4 L52.4,10.4 C52.3,10.4 52.1,10.5 52.1,10.7 L50.6,15.7 L50.5,16 L50.4,15.7 L49.8,13.2 L49.2,10.7 C49.2,10.6 49,10.4 48.9,10.4 L40.9,10.4 L40.9,6.1 C40.9,6 40.7,5.8 40.5,5.9 L35.5,7.5 C35.3,7.5 35.2,7.6 35.2,7.8 L35.2,10.5 L33.9,10.5 C33.8,10.5 33.6,10.6 33.6,10.8 L33.6,14.6 C33.6,14.7 33.7,14.9 33.9,14.9 L35.2,14.9 L35.2,19.6 C35.2,22.9 37,24.4 40.3,24.4 C41.7,24.4 43,24.1 43.9,23.6 L43.9,19.6 C43.9,19.4 43.7,19.3 43.6,19.4 C43.1,19.6 42.6,19.7 42.2,19.7 C41.3,19.7 40.8,19.3 40.8,18.3 L40.8,14.9 L43.7,14.9 C43.8,14.9 44,14.8 44,14.6 L44,11.4 L47.8,24 C47.8,24.1 48,24.3 48.1,24.3 L52.3,24.3 C52.4,24.3 52.6,24.2 52.6,24 L54.4,18.4 L55.3,21.3 L56.1,24 C56.1,24.1 56.3,24.3 56.4,24.3 L60.6,24.3 C60.7,24.3 60.9,24.2 60.9,24 L64.7,11.4 L64.7,24 C64.7,24.1 64.8,24.3 65,24.3 L70.1,24.3 C70.2,24.3 70.4,24.2 70.4,24 L70.4,10.7 C70.4,10.6 70.3,10.4 70.2,10.4 L70.2,10.4 Z M76.9,5.9 L71.8,5.9 C71.7,5.9 71.5,6 71.5,6.2 L71.5,23.9 C71.5,24 71.6,24.2 71.8,24.2 L76.9,24.2 C77,24.2 77.2,24.1 77.2,23.9 L77.2,6.1 C77.2,6 77.1,5.9 76.9,5.9 Z M83.7,5.9 L78.4,5.9 C78.3,5.9 78.1,6 78.1,6.2 L78.1,9.3 C78.1,9.4 78.2,9.6 78.4,9.6 L83.7,9.6 C83.8,9.6 84,9.5 84,9.3 L84,6.1 C84,6 83.9,5.9 83.7,5.9 L83.7,5.9 Z M83.6,10.4 L78.5,10.4 C78.4,10.4 78.2,10.5 78.2,10.7 L78.2,23.8 C78.2,23.9 78.3,24.1 78.5,24.1 L83.6,24.1 C83.7,24.1 83.9,24 83.9,23.8 L83.9,10.7 C83.9,10.6 83.8,10.4 83.6,10.4 Z M99.7,17.2 C99.7,21 96.5,24.3 92,24.3 C87.6,24.3 84.4,21 84.4,17.2 C84.4,13.4 87.6,10.1 92.1,10.1 C96.5,10.1 99.7,13.4 99.7,17.2 L99.7,17.2 Z M94.3,17.3 C94.3,15.9 93.3,14.8 92.1,14.9 C90.8,14.9 89.9,16 89.9,17.3 C89.9,18.6 90.9,19.7 92.1,19.7 C93.4,19.7 94.3,18.6 94.3,17.3 Z" id="Shape"></path>
        </g>
    </g>
</svg>